<?xml version="1.0" standalone="no"?>
<!DOCTYPE svg PUBLIC "-//W3C//DTD SVG 20010904//EN"
 "http://www.w3.org/TR/2001/REC-SVG-20010904/DTD/svg10.dtd">
<svg version="1.0" xmlns="http://www.w3.org/2000/svg"
 width="600.000000pt" height="600.000000pt" viewBox="0 0 600.000000 600.000000"
 preserveAspectRatio="xMidYMid meet">
<g transform="translate(0.000000,600.000000) scale(0.100000,-0.100000)"
fill="#000000" stroke="none">
<path d="M1637 4252 c-14 -15 -17 -42 -17 -149 0 -189 -38 -173 403 -173 l357
0 0 -209 0 -210 -72 -7 c-40 -5 -76 -7 -80 -6 -5 1 -8 -2 -8 -8 0 -5 -8 -9
-17 -8 -31 4 -148 -37 -213 -74 -8 -4 -25 -12 -38 -18 -12 -5 -25 -17 -28 -25
-4 -8 -12 -15 -19 -15 -7 0 -19 -8 -26 -17 -12 -14 -12 -16 0 -8 9 5 12 4 7
-3 -4 -6 -12 -9 -19 -6 -7 2 -24 -13 -37 -35 -14 -21 -28 -37 -32 -35 -4 3
-10 -7 -14 -21 -4 -15 -11 -22 -18 -18 -6 3 -8 2 -3 -2 4 -5 0 -17 -10 -27 -9
-10 -13 -18 -9 -18 3 0 -4 -17 -17 -37 -13 -21 -22 -44 -20 -50 3 -7 0 -13 -6
-13 -6 0 -7 -7 -4 -17 4 -9 2 -14 -3 -10 -5 3 -10 -2 -11 -11 -1 -9 -6 -35
-12 -57 -18 -69 -24 -244 -12 -339 16 -120 73 -261 154 -379 53 -78 203 -229
245 -248 17 -7 32 -17 32 -20 0 -4 8 -9 18 -13 9 -3 24 -10 32 -15 8 -5 40
-19 70 -31 67 -27 283 -40 353 -21 23 6 52 13 64 14 12 2 26 6 29 10 4 4 18 7
30 7 13 0 28 8 33 18 6 9 11 13 11 9 0 -18 52 19 111 78 29 30 94 154 85 163
-3 2 2 21 10 41 20 48 33 212 40 524 l6 257 194 0 194 0 1 -492 c2 -531 2
-509 13 -553 22 -89 31 -115 39 -115 4 0 6 -4 3 -9 -3 -5 1 -14 9 -21 8 -7 15
-19 15 -26 0 -8 6 -14 14 -14 8 0 18 -5 22 -12 5 -7 2 -9 -7 -4 -8 4 -3 -1 11
-12 13 -11 27 -19 30 -17 3 2 12 0 20 -6 13 -7 13 -9 0 -10 -21 -1 70 -30 97
-31 13 0 21 -4 18 -8 -8 -13 111 -11 176 4 35 9 87 27 114 40 47 24 145 119
145 141 0 6 13 25 29 43 17 17 27 32 24 32 -4 0 4 11 17 25 13 14 20 25 17 25
-4 0 0 11 8 24 15 23 15 25 -5 31 -11 3 -17 11 -14 17 5 7 2 8 -7 2 -13 -8
-132 -13 -124 -5 2 1 -7 13 -21 25 l-25 21 -2 907 -2 908 168 0 c129 0 176 4
200 15 l32 15 -1 132 c0 97 -4 139 -15 156 l-14 22 -1351 0 c-1296 0 -1352 -1
-1367 -18z m2723 -153 l0 -140 -205 3 -206 3 3 -920 c3 -907 3 -921 23 -955
26 -44 68 -59 138 -49 29 3 53 5 55 4 8 -7 -139 -214 -169 -239 -17 -15 -55
-39 -83 -54 -48 -25 -60 -27 -176 -27 -120 0 -127 1 -180 30 -64 35 -113 95
-137 168 -15 46 -17 113 -21 592 l-3 540 -229 0 -228 0 -5 -355 c-4 -270 -8
-372 -20 -428 -51 -236 -175 -332 -452 -348 -128 -8 -222 11 -333 67 -207 104
-400 377 -443 625 -16 95 -6 289 21 382 80 282 301 451 625 478 l80 6 -2 240
-2 239 -381 -1 -380 -1 0 141 0 140 1355 0 1355 0 0 -141z"/>
<path d="M2940 3799 c0 -91 -3 -200 -6 -242 l-7 -77 237 0 236 0 0 243 0 242
-230 0 -230 0 0 -166z m430 -76 l0 -208 -200 -4 -200 -3 0 211 0 211 200 0
200 0 0 -207z"/>
<path d="M2310 3011 c-99 -30 -142 -93 -148 -215 -5 -102 9 -173 54 -267 58
-122 110 -157 162 -109 36 34 44 85 49 348 l6 252 -49 -1 c-27 0 -60 -4 -74
-8z m96 -33 c4 -7 3 -8 -4 -4 -9 5 -12 -53 -12 -228 0 -133 -4 -246 -10 -261
-25 -65 -57 -65 -105 -2 -59 77 -78 144 -79 272 -1 90 2 116 17 138 9 15 15
27 12 27 -2 0 3 9 12 19 9 11 20 18 25 15 4 -3 8 3 9 13 0 11 3 13 6 5 3 -8 9
-10 16 -3 11 8 43 15 89 20 9 0 20 -4 24 -11z"/>
</g>
</svg>
